<svg version="1.1" id="Layer_1" xmlns="http://www.w3.org/2000/svg" xmlns:xlink="http://www.w3.org/1999/xlink" x="0px" y="0px"
	 width="100%" viewBox="0 0 1024 528" enable-background="new 0 0 1024 528" xml:space="preserve">
<path fill="#000000" opacity="1.000000" stroke="none" 
	d="
M250.175903,306.000488 
	C233.929825,330.942047 215.237091,353.511505 195.906830,375.576935 
	C190.470032,381.783051 187.499908,381.745544 182.274246,375.569275 
	C163.115540,352.925385 143.879318,330.328583 128.153717,305.059784 
	C119.582176,291.286499 112.443840,276.943298 109.470940,260.696411 
	C101.547066,217.392319 130.089035,175.614288 173.128723,166.414734 
	C206.841156,159.208847 241.967621,176.425110 257.909882,203.137604 
	C258.677673,204.424118 259.335938,205.778870 260.146606,207.036438 
	C262.559143,210.778839 261.949066,213.173798 257.610352,215.124649 
	C249.106674,218.948288 240.708221,223.044128 232.484451,227.435974 
	C228.348267,229.644897 226.093521,229.155258 223.849701,224.892731 
	C218.053650,213.882141 208.608307,207.527054 196.538116,205.027985 
	C174.113449,200.385025 151.045090,217.696060 149.204651,240.480591 
	C147.562439,260.811249 157.842041,276.867188 176.504822,283.121307 
	C194.095398,289.016113 213.846069,281.786194 223.481659,265.924927 
	C227.122223,259.932129 227.480652,259.895233 231.077606,265.870789 
	C237.606628,276.717438 244.007278,287.641663 250.583481,298.459320 
	C252.166794,301.063843 252.566132,303.336243 250.175903,306.000488 
z"/>
<path fill="#000000" opacity="1.000000" stroke="none" 
	d="
M386.968628,234.002808 
	C379.990112,232.312592 373.555450,229.938461 366.578949,230.233368 
	C362.983093,230.385376 359.599670,231.353317 356.511047,232.865036 
	C349.862061,236.119370 349.308411,244.909607 355.239105,249.993332 
	C360.465118,254.473007 367.128845,255.792664 373.361908,258.022156 
	C379.910431,260.364471 386.638794,262.246582 393.069305,264.867767 
	C408.049408,270.973907 416.346344,282.627167 415.859009,296.218811 
	C415.336853,310.781525 406.124329,323.343414 391.090179,328.001465 
	C365.720856,335.861664 342.208771,330.993866 320.544678,316.030487 
	C317.767914,314.112579 316.945709,312.068970 318.762573,308.903687 
	C320.996429,305.011902 322.956879,300.948181 324.805481,296.854889 
	C326.339691,293.457764 327.810333,292.662079 331.024017,295.397186 
	C341.877991,304.634674 354.628143,309.381042 368.793182,310.487335 
	C373.254700,310.835815 377.420166,309.576416 381.371552,307.871490 
	C385.766235,305.975250 388.658142,302.581360 388.723511,297.494110 
	C388.786713,292.574219 386.540466,288.875122 382.285004,286.432404 
	C376.160034,282.916595 369.328979,281.281525 362.664734,279.241455 
	C356.308533,277.295685 349.929901,275.384277 343.926971,272.533722 
	C332.463684,267.090302 325.146973,258.780060 324.499054,245.304520 
	C323.774384,230.233795 330.088043,219.337250 343.376617,213.032898 
	C360.494843,204.911713 378.187744,205.894318 395.832214,211.742279 
	C400.907684,213.424454 405.628265,215.861725 410.292877,218.432541 
	C412.997437,219.923080 414.191101,221.624786 412.507111,224.852005 
	C410.201874,229.269760 408.336212,233.918945 406.330475,238.490158 
	C405.185608,241.099350 403.622864,242.194778 400.909302,240.423599 
	C396.695038,237.672958 391.896759,236.159592 386.968628,234.002808 
z"/>
<path fill="#000000" opacity="1.000000" stroke="none" 
	d="
M573.092163,237.502777 
	C588.858521,241.816437 597.668579,253.903824 598.027527,272.356659 
	C598.361267,289.516296 598.028381,306.687988 598.153198,323.853180 
	C598.182129,327.819977 596.889221,329.522736 592.718872,329.615723 
	C588.051758,329.719788 583.411865,329.681976 578.747559,329.566742 
	C574.695618,329.466675 573.709595,327.700531 573.741699,324.017731 
	C573.871155,309.185913 573.828003,294.352112 573.776611,279.519287 
	C573.737122,268.122711 568.604736,261.558533 558.253784,259.462860 
	C548.486267,257.485321 537.498352,262.792694 533.567078,271.505493 
	C531.418762,276.266724 530.312622,281.308868 530.375916,286.546722 
	C530.522888,298.701141 530.816406,310.854218 530.889832,323.008850 
	C530.928040,329.328644 530.307556,329.841339 524.024414,329.884155 
	C519.860352,329.912537 515.695312,329.778870 511.530487,329.733795 
	C508.268127,329.698486 506.805725,328.231415 506.813110,324.809448 
	C506.898254,285.477264 506.914917,246.144867 506.883362,206.812592 
	C506.880676,203.473129 508.125336,201.859344 511.552490,201.908508 
	C516.384399,201.977844 521.218506,201.912354 526.051575,201.885574 
	C529.581665,201.865997 530.829285,203.203659 530.717285,207.079407 
	C530.322571,220.731094 530.427490,234.397354 530.372253,248.058212 
	C530.369751,248.675461 530.653931,249.293869 531.139099,251.283600 
	C542.367371,237.254257 556.739014,234.688797 573.092163,237.502777 
z"/>
<path fill="#000000" opacity="1.000000" stroke="none" 
	d="
M838.894043,325.311340 
	C827.568787,318.288971 823.258118,308.198944 825.203247,295.691223 
	C827.096069,283.519867 835.406616,277.279877 846.732971,274.099243 
	C850.166138,273.135193 853.528320,272.675079 857.041626,272.692535 
	C864.872314,272.731476 872.703369,272.715546 880.534180,272.688263 
	C886.715088,272.666718 887.518005,271.448761 885.290222,265.576904 
	C883.445862,260.715546 879.534363,258.279663 874.760986,257.407074 
	C863.795898,255.402634 853.220703,257.143402 843.340454,262.123566 
	C839.548706,264.034821 837.673584,263.372375 836.075562,259.677185 
	C834.890808,256.937775 833.288147,254.374619 831.810486,251.767654 
	C830.470032,249.402817 831.065674,247.710587 833.364380,246.385162 
	C848.499329,237.658310 864.924133,234.150772 881.928528,237.408829 
	C901.411255,241.141754 909.365845,251.168488 909.978455,271.193390 
	C910.523315,289.004425 910.061035,306.845062 910.153320,324.672058 
	C910.171997,328.277039 908.666748,329.878967 905.124939,329.847015 
	C900.960327,329.809479 896.788086,329.727600 892.631653,329.926605 
	C888.221863,330.137665 885.955933,328.580658 886.653259,323.864563 
	C886.769958,323.075470 886.545959,322.235992 886.397766,320.418427 
	C871.318481,331.143280 855.697083,333.284058 838.894043,325.311340 
M847.401367,297.974304 
	C847.220398,305.719696 850.748962,310.416809 858.039795,311.799286 
	C864.973206,313.113983 871.585510,311.968445 877.755920,308.552826 
	C884.038818,305.074890 886.773438,299.603241 886.764709,292.505341 
	C886.761230,289.653229 885.941528,288.161041 882.816162,288.207977 
	C875.006958,288.325256 867.178345,287.969238 859.390381,288.398956 
	C853.805603,288.707062 849.081177,291.056854 847.401367,297.974304 
z"/>
<path fill="#000000" opacity="1.000000" stroke="none" 
	d="
M682.696838,304.208740 
	C674.104614,281.846436 665.613831,259.857086 656.868835,237.209396 
	C664.947998,235.323181 672.349854,235.677948 679.684937,236.556015 
	C682.263367,236.864655 682.656616,239.856918 683.398376,242.043274 
	C690.023010,261.569672 696.638489,281.099152 703.270386,300.623047 
	C703.527771,301.380890 703.923340,302.091858 704.478577,303.320557 
	C707.391052,299.883179 707.858154,295.879547 709.086731,292.309021 
	C714.926514,275.338348 720.609375,258.312439 726.176575,241.250214 
	C727.399353,237.502625 729.472656,235.817703 733.418030,235.984955 
	C737.906372,236.175262 742.410034,235.973206 746.903625,236.082626 
	C749.930542,236.156311 751.632751,237.167923 750.255615,240.763000 
	C739.426697,269.031219 728.673889,297.328705 717.944092,325.634735 
	C716.914490,328.350891 715.214661,329.533691 712.283508,329.421417 
	C708.293030,329.268524 704.291687,329.402802 700.295044,329.402283 
	C692.008240,329.401215 692.056946,329.380371 689.158752,321.382660 
	C687.118713,315.753296 684.923889,310.180054 682.696838,304.208740 
z"/>
<path fill="#000000" opacity="1.000000" stroke="none" 
	d="
M486.544220,256.859955 
	C479.621246,257.128418 473.124573,257.327301 466.631958,257.237091 
	C463.169556,257.188995 461.945038,258.536530 461.994415,261.978455 
	C462.164062,273.809448 462.300079,285.646698 462.098480,297.475586 
	C461.877930,310.417511 468.071533,311.007568 477.797150,308.174988 
	C484.822113,306.128967 484.729950,305.808929 486.845123,312.913391 
	C487.035309,313.552155 487.187103,314.202423 487.381256,314.839905 
	C490.195557,324.080505 490.249878,324.230194 481.112640,327.478333 
	C472.782837,330.439453 464.297974,331.191254 455.680908,328.319244 
	C445.610962,324.963074 438.835388,316.089630 438.747803,305.412109 
	C438.630249,291.079987 438.592377,276.744904 438.769348,262.414185 
	C438.817780,258.493042 437.554688,257.112061 433.612030,257.178894 
	C430.887787,257.225037 426.797150,258.944672 425.689087,255.194763 
	C424.388214,250.792572 424.185822,245.828918 425.908356,241.442123 
	C426.855774,239.029266 430.087097,239.691910 432.302826,239.922073 
	C437.457001,240.457504 439.127014,238.305023 438.749664,233.318069 
	C438.386108,228.512955 438.774902,223.655563 438.658569,218.825348 
	C438.586090,215.815857 439.877686,214.608704 442.824219,214.657715 
	C447.655884,214.738098 452.492798,214.754898 457.322388,214.618607 
	C460.708801,214.523041 462.214722,215.936630 462.149414,219.339676 
	C462.050323,224.504364 462.252716,229.677429 462.058716,234.836838 
	C461.922974,238.447403 463.191315,239.989319 466.947052,239.846725 
	C472.438721,239.638245 477.946411,239.892075 483.443817,239.779724 
	C486.828796,239.710556 488.537537,241.117676 488.176910,244.520676 
	C487.747955,248.568176 489.488678,252.834335 486.544220,256.859955 
z"/>
<path fill="#000000" opacity="1.000000" stroke="none" 
	d="
M777.188354,329.427643 
	C773.737854,329.462982 770.746826,329.454224 767.758484,329.541351 
	C764.319092,329.641663 763.081543,327.871429 763.084473,324.615540 
	C763.109558,296.662872 763.097290,268.710144 763.050110,240.757492 
	C763.044861,237.632858 764.465027,236.118439 767.525146,236.094101 
	C772.349548,236.055740 777.174316,236.068741 781.998718,236.029877 
	C785.645874,236.000488 787.056702,237.926193 786.841919,241.386429 
	C786.648193,244.507553 786.504089,247.631744 786.324036,251.019455 
	C789.070862,250.996750 789.700806,248.999374 790.776062,247.761658 
	C796.250977,241.459152 803.185364,237.813782 811.319092,236.447037 
	C816.727905,235.538162 818.004272,236.656708 818.117615,241.979645 
	C818.202576,245.971313 818.027710,249.971161 818.197815,253.957596 
	C818.355408,257.650360 817.123840,259.162262 813.116394,259.453339 
	C806.962891,259.900330 801.105225,261.820618 796.039246,265.690033 
	C788.360718,271.554962 786.570618,279.771729 786.637085,288.743378 
	C786.714722,299.222687 786.921143,309.701233 786.970398,320.180573 
	C787.013733,329.407440 786.952087,329.407715 777.188354,329.427643 
z"/>
<path fill="#000000" opacity="1.000000" stroke="none" 
	d="
M211.488861,224.541840 
	C227.992615,243.350616 217.112396,270.436981 195.496811,274.438446 
	C178.268051,277.627808 163.010895,268.100983 159.516022,250.436127 
	C156.266006,234.008926 167.087997,218.224060 183.491730,215.342407 
	C194.354965,213.434082 203.508804,216.587494 211.488861,224.541840 
z"/>
<path fill="#000000" opacity="1.000000" stroke="none" 
	d="
M632.816406,329.558777 
	C619.636658,328.985474 620.937073,331.420593 620.912476,317.998352 
	C620.866699,293.022034 620.900696,268.045593 620.927124,243.069214 
	C620.933777,236.728531 621.452698,236.177353 627.650879,236.035873 
	C631.811035,235.940903 635.975159,236.014069 640.137512,236.025604 
	C643.336670,236.034485 645.041748,237.416382 645.038940,240.852509 
	C645.016479,268.659149 645.020874,296.465973 645.119629,324.272369 
	C645.133423,328.156342 643.585632,329.746948 639.741577,329.460632 
	C637.592102,329.300537 635.416077,329.496918 632.816406,329.558777 
z"/>
<path fill="#000000" opacity="1.000000" stroke="none" 
	d="
M641.896240,200.043640 
	C648.507385,208.421844 647.273499,218.853622 639.471252,223.157364 
	C633.719238,226.330261 626.779907,225.071121 622.842163,220.139862 
	C618.528748,214.738266 618.556824,206.579529 622.907471,201.186218 
	C626.815796,196.341202 633.862488,195.133575 639.587219,198.354370 
	C640.304565,198.757950 640.943237,199.301437 641.896240,200.043640 
z"/>
</svg>